<?xml version="1.0" encoding="UTF-8" standalone="no"?>
<!-- Created with Inkscape (http://www.inkscape.org/) -->

<svg
   version="1.1"
   id="svg2"
   xml:space="preserve"
   width="2560"
   height="1440"
   viewBox="0 0 2560 1440"
   sodipodi:docname="auth-bg.ai"
   xmlns:inkscape="http://www.inkscape.org/namespaces/inkscape"
   xmlns:sodipodi="http://sodipodi.sourceforge.net/DTD/sodipodi-0.dtd"
   xmlns="http://www.w3.org/2000/svg"
   xmlns:svg="http://www.w3.org/2000/svg"><defs
     id="defs6"><clipPath
       clipPathUnits="userSpaceOnUse"
       id="clipPath16"><path
         d="M 0,1080 H 1920 V 0 H 0 Z"
         id="path14" /></clipPath><pattern
       patternTransform="translate(-0.9999,1080)"
       patternUnits="userSpaceOnUse"
       x="0"
       y="0"
       width="1081"
       height="1081"
       id="pattern36"><path
         d="M 1081,0 0,0 l 0,1081 1081,0 0,-1081 z"
         style="fill:#ffb400;fill-opacity:1;fill-rule:nonzero;stroke:none"
         id="path20" /><path
         d="m 1081,1011.471 -1081,0 0,11.59 1081,0 0,-11.59 z"
         style="fill:#0d2c54;fill-opacity:1;fill-rule:nonzero;stroke:none"
         id="path22" /><path
         d="m 1081,856.09 -1081,0 0,11.59 1081,0 0,-11.59 z"
         style="fill:#0d2c54;fill-opacity:1;fill-rule:nonzero;stroke:none"
         id="path24" /><path
         d="m 1081,700.721 -1081,0 0,11.59 1081,0 0,-11.59 z"
         style="fill:#0d2c54;fill-opacity:1;fill-rule:nonzero;stroke:none"
         id="path26" /><path
         d="m 1081,545.34 -1081,0 0,11.601 1081,0 0,-11.601 z"
         style="fill:#0d2c54;fill-opacity:1;fill-rule:nonzero;stroke:none"
         id="path28" /><path
         d="m 1081,389.971 -1081,0 0,11.59 1081,0 0,-11.59 z"
         style="fill:#0d2c54;fill-opacity:1;fill-rule:nonzero;stroke:none"
         id="path30" /><path
         d="m 1081,234.59 -1081,0 0,11.601 1081,0 0,-11.601 z"
         style="fill:#0d2c54;fill-opacity:1;fill-rule:nonzero;stroke:none"
         id="path32" /><path
         d="m 1081,79.221 -1081,0 0,11.59 1081,0 0,-11.59 z"
         style="fill:#0d2c54;fill-opacity:1;fill-rule:nonzero;stroke:none"
         id="path34" /></pattern><pattern
       patternTransform="translate(-0.9999,1080)"
       patternUnits="userSpaceOnUse"
       x="0"
       y="0"
       width="1081"
       height="1081"
       id="pattern72"><path
         d="M 1081,0 0,0 l 0,1081 1081,0 0,-1081 z"
         style="fill:#0d2c54;fill-opacity:1;fill-rule:nonzero;stroke:none"
         id="path42" /><g
         transform="translate(82.5298,798)"
         id="g46"><path
           d="M 0,0 -26,-103.72 0,-207.45 -26,-311.18 0,-414.9 -26,-518.63 0,-622.36 -26,-726.09 -8,-798 l -11.54,0 -18.05,71.9 26,103.73 -26,103.72 26,103.73 -26,103.72 26,103.73 -26,103.72 26,103.73 -26,103.73 25.97,104.64 -18.83,74.65 11.49,0 L 0,207.45 -26,103.73 0,0 Z"
           style="fill:#ffb400;fill-opacity:1;fill-rule:nonzero;stroke:none"
           id="path44" /></g><g
         transform="translate(237.9102,798)"
         id="g50"><path
           d="M 0,0 -26,-103.72 0,-207.45 -26,-311.18 0,-414.9 -26,-518.63 0,-622.36 -26,-726.09 -8,-798 l -11.54,0 -18.05,71.9 26,103.73 -26,103.72 26,103.73 -26,103.72 26,103.73 -26,103.72 26,103.73 -26,103.73 25.97,104.64 -18.83,74.65 11.49,0 L 0,207.45 -26,103.73 0,0 Z"
           style="fill:#ffb400;fill-opacity:1;fill-rule:nonzero;stroke:none"
           id="path48" /></g><g
         transform="translate(393.2798,798)"
         id="g54"><path
           d="M 0,0 -26,-103.72 0,-207.45 -26,-311.18 0,-414.9 -26,-518.63 0,-622.36 -26,-726.09 -8,-798 l -11.54,0 -18.05,71.9 26,103.73 -26,103.72 26,103.73 -26,103.72 26,103.73 -26,103.72 26,103.73 -26,103.73 25.97,104.64 -18.83,74.65 11.49,0 L 0,207.45 -26,103.73 0,0 Z"
           style="fill:#ffb400;fill-opacity:1;fill-rule:nonzero;stroke:none"
           id="path52" /></g><g
         transform="translate(548.6602,798)"
         id="g58"><path
           d="M 0,0 -26,-103.72 0,-207.45 -26,-311.18 0,-414.9 -26,-518.63 0,-622.36 -26,-726.09 -8,-798 l -11.55,0 -18.05,71.9 26,103.73 -26,103.72 26,103.73 -26,103.72 26,103.73 -26,103.72 26,103.73 -26,103.73 25.97,104.64 -18.83,74.65 11.5,0 L 0,207.45 -26,103.73 0,0 Z"
           style="fill:#ffb400;fill-opacity:1;fill-rule:nonzero;stroke:none"
           id="path56" /></g><g
         transform="translate(704.0298,798)"
         id="g62"><path
           d="M 0,0 -26,-103.72 0,-207.45 -26,-311.18 0,-414.9 -26,-518.63 0,-622.36 -26,-726.09 -8,-798 l -11.54,0 -18.05,71.9 26,103.73 -26,103.72 26,103.73 -26,103.72 26,103.73 -26,103.72 26,103.73 -26,103.73 25.97,104.64 -18.83,74.65 11.49,0 L 0,207.45 -26,103.73 0,0 Z"
           style="fill:#ffb400;fill-opacity:1;fill-rule:nonzero;stroke:none"
           id="path60" /></g><g
         transform="translate(859.4102,798)"
         id="g66"><path
           d="M 0,0 -26,-103.72 0,-207.45 -26,-311.18 0,-414.9 -26,-518.63 0,-622.36 -26,-726.09 -8,-798 l -11.55,0 -18.05,71.9 26,103.73 -26,103.72 26,103.73 -26,103.72 26,103.73 -26,103.72 26,103.73 -26,103.73 25.97,104.64 -18.83,74.65 11.5,0 L 0,207.45 -26,103.73 0,0 Z"
           style="fill:#ffb400;fill-opacity:1;fill-rule:nonzero;stroke:none"
           id="path64" /></g><g
         transform="translate(1014.7798,798)"
         id="g70"><path
           d="M 0,0 -26,-103.72 0,-207.45 -26,-311.18 0,-414.9 -26,-518.63 0,-622.36 -26,-726.09 -8,-798 l -11.54,0 -18.05,71.9 26,103.73 -26,103.72 26,103.73 -26,103.72 26,103.73 -26,103.72 26,103.73 -26,103.73 25.97,104.64 -18.83,74.65 11.49,0 L 0,207.45 -26,103.73 0,0 Z"
           style="fill:#ffb400;fill-opacity:1;fill-rule:nonzero;stroke:none"
           id="path68" /></g></pattern><pattern
       patternTransform="translate(-0.9999,1080)"
       patternUnits="userSpaceOnUse"
       x="0"
       y="0"
       width="1081"
       height="1081"
       id="pattern108"><path
         d="M 1081,0 0,0 l 0,1081 1081,0 0,-1081 z"
         style="fill:#00a6ed;fill-opacity:1;fill-rule:nonzero;stroke:none"
         id="path78" /><g
         transform="translate(79.5298,1080.6997)"
         id="g82"><path
           d="m 0,0 c 0,-28.21 -20,-28.21 -20,-56.43 0,-28.22 20,-28.22 20,-56.43 0,-28.22 -20,-28.22 -20,-56.44 0,-28.21 20,-28.21 20,-56.43 0,-28.22 -20,-28.22 -20,-56.43 0,-28.22 20,-28.22 20,-56.43 0,-28.22 -20,-28.22 -20,-56.43 0,-28.22 20,-28.22 20,-56.43 0,-28.22 -20,-28.22 -20,-56.43 0,-28.22 20,-28.22 20,-56.44 0,-28.21 -20,-28.21 -20,-56.43 0,-28.22 20,-28.22 20,-56.44 0,-28.22 -20,-28.22 -20,-56.43 0,-28.22 20,-28.22 20,-56.44 0,-28.22 -20,-28.22 -20,-56.43 0,-28.22 20,-28.22 20,-56.44 0,-28.21 -20,-28.21 -20,-56.43 0,-28.22 20,-28.22 20,-56.44 0,-28.22 -20,-28.22 -20,-56.44 0,-3.14 0.25,-5.94 0.7,-8.46 l -11.61,0 c -0.44,2.52 -0.68,5.31 -0.68,8.45 0,28.21 20,28.21 20,56.43 0,28.22 -20,28.22 -20,56.43 0,28.22 20,28.22 20,56.44 0,28.21 -20,28.21 -20,56.43 0,28.22 20,28.22 20,56.43 0,28.22 -20,28.22 -20,56.43 0,28.22 20,28.22 20,56.43 0,28.22 -20,28.22 -20,56.43 0,28.22 20,28.22 20,56.43 0,28.22 -20,28.22 -20,56.44 0,28.21 20,28.21 20,56.43 0,28.22 -20,28.22 -20,56.44 0,28.21 20,28.21 20,56.43 0,28.22 -20,28.22 -20,56.44 0,28.21 20,28.21 20,56.43 0,28.22 -20,28.22 -20,56.44 0,28.21 20,28.21 20,56.43 0,28.22 -20,28.22 -20,56.44 0,27.92 22.82,29.6 20.03,56.75 L 0,0.3 0,0 Z"
           style="fill:#0d2c54;fill-opacity:1;fill-rule:nonzero;stroke:none"
           id="path80" /></g><g
         transform="translate(234.9102,1080.6997)"
         id="g86"><path
           d="m 0,0 c 0,-28.21 -20,-28.21 -20,-56.43 0,-28.22 20,-28.22 20,-56.43 0,-28.22 -20,-28.22 -20,-56.44 0,-28.21 20,-28.21 20,-56.43 0,-28.22 -20,-28.22 -20,-56.43 0,-28.22 20,-28.22 20,-56.43 0,-28.22 -20,-28.22 -20,-56.43 0,-28.22 20,-28.22 20,-56.43 0,-28.22 -20,-28.22 -20,-56.43 0,-28.22 20,-28.22 20,-56.44 0,-28.21 -20,-28.21 -20,-56.43 0,-28.22 20,-28.22 20,-56.44 0,-28.22 -20,-28.22 -20,-56.43 0,-28.22 20,-28.22 20,-56.44 0,-28.22 -20,-28.22 -20,-56.43 0,-28.22 20,-28.22 20,-56.44 0,-28.21 -20,-28.21 -20,-56.43 0,-28.22 20,-28.22 20,-56.44 0,-28.22 -20,-28.22 -20,-56.44 0,-3.14 0.25,-5.94 0.7,-8.46 l -11.61,0 c -0.44,2.52 -0.68,5.31 -0.68,8.45 0,28.21 20,28.21 20,56.43 0,28.22 -20,28.22 -20,56.43 0,28.22 20,28.22 20,56.44 0,28.21 -20,28.21 -20,56.43 0,28.22 20,28.22 20,56.43 0,28.22 -20,28.22 -20,56.43 0,28.22 20,28.22 20,56.43 0,28.22 -20,28.22 -20,56.43 0,28.22 20,28.22 20,56.43 0,28.22 -20,28.22 -20,56.44 0,28.21 20,28.21 20,56.43 0,28.22 -20,28.22 -20,56.44 0,28.21 20,28.21 20,56.43 0,28.22 -20,28.22 -20,56.44 0,28.21 20,28.21 20,56.43 0,28.22 -20,28.22 -20,56.44 0,28.21 20,28.21 20,56.43 0,28.22 -20,28.22 -20,56.44 0,27.92 22.82,29.6 20.03,56.75 L 0,0.3 0,0 Z"
           style="fill:#0d2c54;fill-opacity:1;fill-rule:nonzero;stroke:none"
           id="path84" /></g><g
         transform="translate(390.2798,1080.6997)"
         id="g90"><path
           d="m 0,0 c 0,-28.21 -20,-28.21 -20,-56.43 0,-28.22 20,-28.22 20,-56.43 0,-28.22 -20,-28.22 -20,-56.44 0,-28.21 20,-28.21 20,-56.43 0,-28.22 -20,-28.22 -20,-56.43 0,-28.22 20,-28.22 20,-56.43 0,-28.22 -20,-28.22 -20,-56.43 0,-28.22 20,-28.22 20,-56.43 0,-28.22 -20,-28.22 -20,-56.43 0,-28.22 20,-28.22 20,-56.44 0,-28.21 -20,-28.21 -20,-56.43 0,-28.22 20,-28.22 20,-56.44 0,-28.22 -20,-28.22 -20,-56.43 0,-28.22 20,-28.22 20,-56.44 0,-28.22 -20,-28.22 -20,-56.43 0,-28.22 20,-28.22 20,-56.44 0,-28.21 -20,-28.21 -20,-56.43 0,-28.22 20,-28.22 20,-56.44 0,-28.22 -20,-28.22 -20,-56.44 0,-3.14 0.25,-5.94 0.7,-8.46 l -11.61,0 c -0.44,2.52 -0.68,5.31 -0.68,8.45 0,28.21 20,28.21 20,56.43 0,28.22 -20,28.22 -20,56.43 0,28.22 20,28.22 20,56.44 0,28.21 -20,28.21 -20,56.43 0,28.22 20,28.22 20,56.43 0,28.22 -20,28.22 -20,56.43 0,28.22 20,28.22 20,56.43 0,28.22 -20,28.22 -20,56.43 0,28.22 20,28.22 20,56.43 0,28.22 -20,28.22 -20,56.44 0,28.21 20,28.21 20,56.43 0,28.22 -20,28.22 -20,56.44 0,28.21 20,28.21 20,56.43 0,28.22 -20,28.22 -20,56.44 0,28.21 20,28.21 20,56.43 0,28.22 -20,28.22 -20,56.44 0,28.21 20,28.21 20,56.43 0,28.22 -20,28.22 -20,56.44 0,27.92 22.82,29.6 20.03,56.75 L 0,0.3 0,0 Z"
           style="fill:#0d2c54;fill-opacity:1;fill-rule:nonzero;stroke:none"
           id="path88" /></g><g
         transform="translate(545.6602,1080.6997)"
         id="g94"><path
           d="m 0,0 c 0,-28.21 -20,-28.21 -20,-56.43 0,-28.22 20,-28.22 20,-56.43 0,-28.22 -20,-28.22 -20,-56.44 0,-28.21 20,-28.21 20,-56.43 0,-28.22 -20,-28.22 -20,-56.43 0,-28.22 20,-28.22 20,-56.43 0,-28.22 -20,-28.22 -20,-56.43 0,-28.22 20,-28.22 20,-56.43 0,-28.22 -20,-28.22 -20,-56.43 0,-28.22 20,-28.22 20,-56.44 0,-28.21 -20,-28.21 -20,-56.43 0,-28.22 20,-28.22 20,-56.44 0,-28.22 -20,-28.22 -20,-56.43 0,-28.22 20,-28.22 20,-56.44 0,-28.22 -20,-28.22 -20,-56.43 0,-28.22 20,-28.22 20,-56.44 0,-28.21 -20,-28.21 -20,-56.43 0,-28.22 20,-28.22 20,-56.44 0,-28.22 -20,-28.22 -20,-56.44 0,-3.14 0.25,-5.94 0.7,-8.46 l -11.62,0 c -0.44,2.52 -0.68,5.31 -0.68,8.45 0,28.21 20,28.21 20,56.43 0,28.22 -20,28.22 -20,56.43 0,28.22 20,28.22 20,56.44 0,28.21 -20,28.21 -20,56.43 0,28.22 20,28.22 20,56.43 0,28.22 -20,28.22 -20,56.43 0,28.22 20,28.22 20,56.43 0,28.22 -20,28.22 -20,56.43 0,28.22 20,28.22 20,56.43 0,28.22 -20,28.22 -20,56.44 0,28.21 20,28.21 20,56.43 0,28.22 -20,28.22 -20,56.44 0,28.21 20,28.21 20,56.43 0,28.22 -20,28.22 -20,56.44 0,28.21 20,28.21 20,56.43 0,28.22 -20,28.22 -20,56.44 0,28.21 20,28.21 20,56.43 0,28.22 -20,28.22 -20,56.44 0,27.92 22.82,29.6 20.03,56.75 L 0,0.3 0,0 Z"
           style="fill:#0d2c54;fill-opacity:1;fill-rule:nonzero;stroke:none"
           id="path92" /></g><g
         transform="translate(701.0298,1080.6997)"
         id="g98"><path
           d="m 0,0 c 0,-28.21 -20,-28.21 -20,-56.43 0,-28.22 20,-28.22 20,-56.43 0,-28.22 -20,-28.22 -20,-56.44 0,-28.21 20,-28.21 20,-56.43 0,-28.22 -20,-28.22 -20,-56.43 0,-28.22 20,-28.22 20,-56.43 0,-28.22 -20,-28.22 -20,-56.43 0,-28.22 20,-28.22 20,-56.43 0,-28.22 -20,-28.22 -20,-56.43 0,-28.22 20,-28.22 20,-56.44 0,-28.21 -20,-28.21 -20,-56.43 0,-28.22 20,-28.22 20,-56.44 0,-28.22 -20,-28.22 -20,-56.43 0,-28.22 20,-28.22 20,-56.44 0,-28.22 -20,-28.22 -20,-56.43 0,-28.22 20,-28.22 20,-56.44 0,-28.21 -20,-28.21 -20,-56.43 0,-28.22 20,-28.22 20,-56.44 0,-28.22 -20,-28.22 -20,-56.44 0,-3.14 0.25,-5.94 0.7,-8.46 l -11.61,0 c -0.44,2.52 -0.68,5.31 -0.68,8.45 0,28.21 20,28.21 20,56.43 0,28.22 -20,28.22 -20,56.43 0,28.22 20,28.22 20,56.44 0,28.21 -20,28.21 -20,56.43 0,28.22 20,28.22 20,56.43 0,28.22 -20,28.22 -20,56.43 0,28.22 20,28.22 20,56.43 0,28.22 -20,28.22 -20,56.43 0,28.22 20,28.22 20,56.43 0,28.22 -20,28.22 -20,56.44 0,28.21 20,28.21 20,56.43 0,28.22 -20,28.22 -20,56.44 0,28.21 20,28.21 20,56.43 0,28.22 -20,28.22 -20,56.44 0,28.21 20,28.21 20,56.43 0,28.22 -20,28.22 -20,56.44 0,28.21 20,28.21 20,56.43 0,28.22 -20,28.22 -20,56.44 0,27.92 22.82,29.6 20.03,56.75 L 0,0.3 0,0 Z"
           style="fill:#0d2c54;fill-opacity:1;fill-rule:nonzero;stroke:none"
           id="path96" /></g><g
         transform="translate(856.4102,1080.6997)"
         id="g102"><path
           d="m 0,0 c 0,-28.21 -20,-28.21 -20,-56.43 0,-28.22 20,-28.22 20,-56.43 0,-28.22 -20,-28.22 -20,-56.44 0,-28.21 20,-28.21 20,-56.43 0,-28.22 -20,-28.22 -20,-56.43 0,-28.22 20,-28.22 20,-56.43 0,-28.22 -20,-28.22 -20,-56.43 0,-28.22 20,-28.22 20,-56.43 0,-28.22 -20,-28.22 -20,-56.43 0,-28.22 20,-28.22 20,-56.44 0,-28.21 -20,-28.21 -20,-56.43 0,-28.22 20,-28.22 20,-56.44 0,-28.22 -20,-28.22 -20,-56.43 0,-28.22 20,-28.22 20,-56.44 0,-28.22 -20,-28.22 -20,-56.43 0,-28.22 20,-28.22 20,-56.44 0,-28.21 -20,-28.21 -20,-56.43 0,-28.22 20,-28.22 20,-56.44 0,-28.22 -20,-28.22 -20,-56.44 0,-3.14 0.25,-5.94 0.7,-8.46 l -11.62,0 c -0.44,2.52 -0.68,5.31 -0.68,8.45 0,28.21 20,28.21 20,56.43 0,28.22 -20,28.22 -20,56.43 0,28.22 20,28.22 20,56.44 0,28.21 -20,28.21 -20,56.43 0,28.22 20,28.22 20,56.43 0,28.22 -20,28.22 -20,56.43 0,28.22 20,28.22 20,56.43 0,28.22 -20,28.22 -20,56.43 0,28.22 20,28.22 20,56.43 0,28.22 -20,28.22 -20,56.44 0,28.21 20,28.21 20,56.43 0,28.22 -20,28.22 -20,56.44 0,28.21 20,28.21 20,56.43 0,28.22 -20,28.22 -20,56.44 0,28.21 20,28.21 20,56.43 0,28.22 -20,28.22 -20,56.44 0,28.21 20,28.21 20,56.43 0,28.22 -20,28.22 -20,56.44 0,27.92 22.82,29.6 20.03,56.75 L 0,0.3 0,0 Z"
           style="fill:#0d2c54;fill-opacity:1;fill-rule:nonzero;stroke:none"
           id="path100" /></g><g
         transform="translate(1011.7798,1080.6997)"
         id="g106"><path
           d="m 0,0 c 0,-28.21 -20,-28.21 -20,-56.43 0,-28.22 20,-28.22 20,-56.43 0,-28.22 -20,-28.22 -20,-56.44 0,-28.21 20,-28.21 20,-56.43 0,-28.22 -20,-28.22 -20,-56.43 0,-28.22 20,-28.22 20,-56.43 0,-28.22 -20,-28.22 -20,-56.43 0,-28.22 20,-28.22 20,-56.43 0,-28.22 -20,-28.22 -20,-56.43 0,-28.22 20,-28.22 20,-56.44 0,-28.21 -20,-28.21 -20,-56.43 0,-28.22 20,-28.22 20,-56.44 0,-28.22 -20,-28.22 -20,-56.43 0,-28.22 20,-28.22 20,-56.44 0,-28.22 -20,-28.22 -20,-56.43 0,-28.22 20,-28.22 20,-56.44 0,-28.21 -20,-28.21 -20,-56.43 0,-28.22 20,-28.22 20,-56.44 0,-28.22 -20,-28.22 -20,-56.44 0,-3.14 0.25,-5.94 0.7,-8.46 l -11.61,0 c -0.44,2.52 -0.68,5.31 -0.68,8.45 0,28.21 20,28.21 20,56.43 0,28.22 -20,28.22 -20,56.43 0,28.22 20,28.22 20,56.44 0,28.21 -20,28.21 -20,56.43 0,28.22 20,28.22 20,56.43 0,28.22 -20,28.22 -20,56.43 0,28.22 20,28.22 20,56.43 0,28.22 -20,28.22 -20,56.43 0,28.22 20,28.22 20,56.43 0,28.22 -20,28.22 -20,56.44 0,28.21 20,28.21 20,56.43 0,28.22 -20,28.22 -20,56.44 0,28.21 20,28.21 20,56.43 0,28.22 -20,28.22 -20,56.44 0,28.21 20,28.21 20,56.43 0,28.22 -20,28.22 -20,56.44 0,28.21 20,28.21 20,56.43 0,28.22 -20,28.22 -20,56.44 0,27.92 22.82,29.6 20.03,56.75 L 0,0.3 0,0 Z"
           style="fill:#0d2c54;fill-opacity:1;fill-rule:nonzero;stroke:none"
           id="path104" /></g></pattern><pattern
       patternTransform="translate(-0.9999,1080)"
       patternUnits="userSpaceOnUse"
       x="0"
       y="0"
       width="1081"
       height="1081"
       id="pattern238"><path
         d="M 1081,0 0,0 l 0,1081 1081,0 0,-1081 z"
         style="fill:#f36e21;fill-opacity:1;fill-rule:nonzero;stroke:none"
         id="path114" /><path
         d="m 1081,1011.47 -1081,0 0,11.59 1081,0 0,-11.59 z"
         style="fill:#ffb400;fill-opacity:1;fill-rule:nonzero;stroke:none"
         id="path116" /><path
         d="m 1081,856.09 -1081,0 0,11.59 1081,0 0,-11.59 z"
         style="fill:#ffb400;fill-opacity:1;fill-rule:nonzero;stroke:none"
         id="path118" /><path
         d="m 1081,700.72 -1081,0 0,11.59 1081,0 0,-11.59 z"
         style="fill:#ffb400;fill-opacity:1;fill-rule:nonzero;stroke:none"
         id="path120" /><path
         d="m 1081,545.34 -1081,0 0,11.6 1081,0 0,-11.6 z"
         style="fill:#ffb400;fill-opacity:1;fill-rule:nonzero;stroke:none"
         id="path122" /><path
         d="m 1081,389.97 -1081,0 0,11.59 1081,0 0,-11.59 z"
         style="fill:#ffb400;fill-opacity:1;fill-rule:nonzero;stroke:none"
         id="path124" /><path
         d="m 1081,234.59 -1081,0 0,11.6 1081,0 0,-11.6 z"
         style="fill:#ffb400;fill-opacity:1;fill-rule:nonzero;stroke:none"
         id="path126" /><path
         d="m 1081,79.22 -1081,0 0,11.59 1081,0 0,-11.59 z"
         style="fill:#ffb400;fill-opacity:1;fill-rule:nonzero;stroke:none"
         id="path128" /><g
         transform="translate(138.0986,944.5)"
         id="g132"><path
           d="m 0,0 c 0,-22.091 -17.908,-40 -40,-40 -22.091,0 -40,17.909 -40,40 0,22.091 17.909,40 40,40 C -17.908,40 0,22.091 0,0"
           style="fill:#0d2c54;fill-opacity:1;fill-rule:nonzero;stroke:none"
           id="path130" /></g><g
         transform="translate(346.7881,944.5)"
         id="g136"><path
           d="m 0,0 c 0,-22.091 -17.908,-40 -40,-40 -22.091,0 -40,17.909 -40,40 0,22.091 17.909,40 40,40 C -17.908,40 0,22.091 0,0"
           style="fill:#0d2c54;fill-opacity:1;fill-rule:nonzero;stroke:none"
           id="path134" /></g><g
         transform="translate(574.7881,944.5)"
         id="g140"><path
           d="m 0,0 c 0,-22.091 -17.908,-40 -40,-40 -22.091,0 -40,17.909 -40,40 0,22.091 17.909,40 40,40 C -17.908,40 0,22.091 0,0"
           style="fill:#0d2c54;fill-opacity:1;fill-rule:nonzero;stroke:none"
           id="path138" /></g><g
         transform="translate(812.9082,944.5)"
         id="g144"><path
           d="m 0,0 c 0,-22.091 -17.908,-40 -40,-40 -22.091,0 -40,17.909 -40,40 0,22.091 17.909,40 40,40 C -17.908,40 0,22.091 0,0"
           style="fill:#0d2c54;fill-opacity:1;fill-rule:nonzero;stroke:none"
           id="path142" /></g><g
         transform="translate(1032.9082,944.5)"
         id="g148"><path
           d="m 0,0 c 0,-22.091 -17.908,-40 -40,-40 -22.091,0 -40,17.909 -40,40 0,22.091 17.909,40 40,40 C -17.908,40 0,22.091 0,0"
           style="fill:#0d2c54;fill-opacity:1;fill-rule:nonzero;stroke:none"
           id="path146" /></g><g
         transform="translate(230.9805,781.9355)"
         id="g152"><path
           d="m 0,0 c 0,-16.257 -13.179,-29.436 -29.436,-29.436 -16.256,0 -29.435,13.179 -29.435,29.436 0,16.257 13.179,29.436 29.435,29.436 C -13.179,29.436 0,16.257 0,0"
           style="fill:#0d2c54;fill-opacity:1;fill-rule:nonzero;stroke:none"
           id="path150" /></g><g
         transform="translate(456.3359,781.9355)"
         id="g156"><path
           d="m 0,0 c 0,-16.257 -13.179,-29.436 -29.436,-29.436 -16.256,0 -29.435,13.179 -29.435,29.436 0,16.257 13.179,29.436 29.435,29.436 C -13.179,29.436 0,16.257 0,0"
           style="fill:#0d2c54;fill-opacity:1;fill-rule:nonzero;stroke:none"
           id="path154" /></g><g
         transform="translate(690.9307,781.9355)"
         id="g160"><path
           d="m 0,0 c 0,-16.257 -13.179,-29.436 -29.436,-29.436 -16.256,0 -29.436,13.179 -29.436,29.436 0,16.257 13.18,29.436 29.436,29.436 C -13.179,29.436 0,16.257 0,0"
           style="fill:#0d2c54;fill-opacity:1;fill-rule:nonzero;stroke:none"
           id="path158" /></g><g
         transform="translate(918.8984,781.9355)"
         id="g164"><path
           d="m 0,0 c 0,-16.257 -13.179,-29.436 -29.436,-29.436 -16.256,0 -29.435,13.179 -29.435,29.436 0,16.257 13.179,29.436 29.435,29.436 C -13.179,29.436 0,16.257 0,0"
           style="fill:#0d2c54;fill-opacity:1;fill-rule:nonzero;stroke:none"
           id="path162" /></g><g
         transform="translate(143.7344,625.3398)"
         id="g168"><path
           d="m 0,0 c 0,-22.091 -17.908,-40 -40,-40 -22.091,0 -40,17.909 -40,40 0,22.091 17.909,40 40,40 C -17.908,40 0,22.091 0,0"
           style="fill:#0d2c54;fill-opacity:1;fill-rule:nonzero;stroke:none"
           id="path166" /></g><g
         transform="translate(352.4238,625.3398)"
         id="g172"><path
           d="m 0,0 c 0,-22.091 -17.908,-40 -40,-40 -22.091,0 -40,17.909 -40,40 0,22.091 17.909,40 40,40 C -17.908,40 0,22.091 0,0"
           style="fill:#0d2c54;fill-opacity:1;fill-rule:nonzero;stroke:none"
           id="path170" /></g><g
         transform="translate(580.4238,625.3398)"
         id="g176"><path
           d="m 0,0 c 0,-22.091 -17.908,-40 -40,-40 -22.091,0 -40,17.909 -40,40 0,22.091 17.909,40 40,40 C -17.908,40 0,22.091 0,0"
           style="fill:#0d2c54;fill-opacity:1;fill-rule:nonzero;stroke:none"
           id="path174" /></g><g
         transform="translate(818.5439,625.3398)"
         id="g180"><path
           d="m 0,0 c 0,-22.091 -17.908,-40 -40,-40 -22.091,0 -40,17.909 -40,40 0,22.091 17.909,40 40,40 C -17.908,40 0,22.091 0,0"
           style="fill:#0d2c54;fill-opacity:1;fill-rule:nonzero;stroke:none"
           id="path178" /></g><g
         transform="translate(1038.5439,625.3398)"
         id="g184"><path
           d="m 0,0 c 0,-22.091 -17.908,-40 -40,-40 -22.091,0 -40,17.909 -40,40 0,22.091 17.909,40 40,40 C -17.908,40 0,22.091 0,0"
           style="fill:#0d2c54;fill-opacity:1;fill-rule:nonzero;stroke:none"
           id="path182" /></g><g
         transform="translate(236.6162,473.7754)"
         id="g188"><path
           d="m 0,0 c 0,-16.257 -13.179,-29.436 -29.436,-29.436 -16.256,0 -29.435,13.179 -29.435,29.436 0,16.257 13.179,29.436 29.435,29.436 C -13.179,29.436 0,16.257 0,0"
           style="fill:#0d2c54;fill-opacity:1;fill-rule:nonzero;stroke:none"
           id="path186" /></g><g
         transform="translate(461.9717,473.7754)"
         id="g192"><path
           d="m 0,0 c 0,-16.257 -13.179,-29.436 -29.436,-29.436 -16.256,0 -29.435,13.179 -29.435,29.436 0,16.257 13.179,29.436 29.435,29.436 C -13.179,29.436 0,16.257 0,0"
           style="fill:#0d2c54;fill-opacity:1;fill-rule:nonzero;stroke:none"
           id="path190" /></g><g
         transform="translate(696.5664,473.7754)"
         id="g196"><path
           d="m 0,0 c 0,-16.257 -13.179,-29.436 -29.436,-29.436 -16.256,0 -29.436,13.179 -29.436,29.436 0,16.257 13.18,29.436 29.436,29.436 C -13.179,29.436 0,16.257 0,0"
           style="fill:#0d2c54;fill-opacity:1;fill-rule:nonzero;stroke:none"
           id="path194" /></g><g
         transform="translate(924.5342,473.7754)"
         id="g200"><path
           d="m 0,0 c 0,-16.257 -13.179,-29.436 -29.436,-29.436 -16.256,0 -29.435,13.179 -29.435,29.436 0,16.257 13.179,29.436 29.435,29.436 C -13.179,29.436 0,16.257 0,0"
           style="fill:#0d2c54;fill-opacity:1;fill-rule:nonzero;stroke:none"
           id="path198" /></g><g
         transform="translate(149.5293,320.3896)"
         id="g204"><path
           d="m 0,0 c 0,-22.091 -17.908,-40 -40,-40 -22.091,0 -40,17.909 -40,40 0,22.091 17.909,40 40,40 C -17.908,40 0,22.091 0,0"
           style="fill:#0d2c54;fill-opacity:1;fill-rule:nonzero;stroke:none"
           id="path202" /></g><g
         transform="translate(358.2188,320.3896)"
         id="g208"><path
           d="m 0,0 c 0,-22.091 -17.908,-40 -40,-40 -22.091,0 -40,17.909 -40,40 0,22.091 17.909,40 40,40 C -17.908,40 0,22.091 0,0"
           style="fill:#0d2c54;fill-opacity:1;fill-rule:nonzero;stroke:none"
           id="path206" /></g><g
         transform="translate(586.2188,320.3896)"
         id="g212"><path
           d="m 0,0 c 0,-22.091 -17.908,-40 -40,-40 -22.091,0 -40,17.909 -40,40 0,22.091 17.909,40 40,40 C -17.908,40 0,22.091 0,0"
           style="fill:#0d2c54;fill-opacity:1;fill-rule:nonzero;stroke:none"
           id="path210" /></g><g
         transform="translate(824.3389,320.3896)"
         id="g216"><path
           d="m 0,0 c 0,-22.091 -17.908,-40 -40,-40 -22.091,0 -40,17.909 -40,40 0,22.091 17.909,40 40,40 C -17.908,40 0,22.091 0,0"
           style="fill:#0d2c54;fill-opacity:1;fill-rule:nonzero;stroke:none"
           id="path214" /></g><g
         transform="translate(1044.3389,320.3896)"
         id="g220"><path
           d="m 0,0 c 0,-22.091 -17.908,-40 -40,-40 -22.091,0 -40,17.909 -40,40 0,22.091 17.909,40 40,40 C -17.908,40 0,22.091 0,0"
           style="fill:#0d2c54;fill-opacity:1;fill-rule:nonzero;stroke:none"
           id="path218" /></g><g
         transform="translate(242.4111,157.8252)"
         id="g224"><path
           d="m 0,0 c 0,-16.257 -13.179,-29.436 -29.436,-29.436 -16.256,0 -29.435,13.179 -29.435,29.436 0,16.257 13.179,29.436 29.435,29.436 C -13.179,29.436 0,16.257 0,0"
           style="fill:#0d2c54;fill-opacity:1;fill-rule:nonzero;stroke:none"
           id="path222" /></g><g
         transform="translate(467.7666,157.8252)"
         id="g228"><path
           d="m 0,0 c 0,-16.257 -13.179,-29.436 -29.436,-29.436 -16.256,0 -29.435,13.179 -29.435,29.436 0,16.257 13.179,29.436 29.435,29.436 C -13.179,29.436 0,16.257 0,0"
           style="fill:#0d2c54;fill-opacity:1;fill-rule:nonzero;stroke:none"
           id="path226" /></g><g
         transform="translate(702.3613,157.8252)"
         id="g232"><path
           d="m 0,0 c 0,-16.257 -13.179,-29.436 -29.436,-29.436 -16.256,0 -29.436,13.179 -29.436,29.436 0,16.257 13.18,29.436 29.436,29.436 C -13.179,29.436 0,16.257 0,0"
           style="fill:#0d2c54;fill-opacity:1;fill-rule:nonzero;stroke:none"
           id="path230" /></g><g
         transform="translate(930.3291,157.8252)"
         id="g236"><path
           d="m 0,0 c 0,-16.257 -13.179,-29.436 -29.436,-29.436 -16.256,0 -29.435,13.179 -29.435,29.436 0,16.257 13.179,29.436 29.435,29.436 C -13.179,29.436 0,16.257 0,0"
           style="fill:#0d2c54;fill-opacity:1;fill-rule:nonzero;stroke:none"
           id="path234" /></g></pattern><pattern
       patternTransform="translate(-0.9999,1080)"
       patternUnits="userSpaceOnUse"
       x="0"
       y="0"
       width="1081"
       height="1081"
       id="pattern274"><path
         d="M 1081,0 0,0 l 0,1081 1081,0 0,-1081 z"
         style="fill:#0d2c54;fill-opacity:1;fill-rule:nonzero;stroke:none"
         id="path244" /><g
         transform="translate(82.5298,798)"
         id="g248"><path
           d="M 0,0 -26,-103.72 0,-207.45 -26,-311.18 0,-414.9 -26,-518.63 0,-622.36 -26,-726.09 -8,-798 l -11.54,0 -18.05,71.9 26,103.73 -26,103.72 26,103.73 -26,103.72 26,103.73 -26,103.72 26,103.73 -26,103.73 25.97,104.64 -18.83,74.65 11.49,0 L 0,207.45 -26,103.73 0,0 Z"
           style="fill:#ffb400;fill-opacity:1;fill-rule:nonzero;stroke:none"
           id="path246" /></g><g
         transform="translate(237.9102,798)"
         id="g252"><path
           d="M 0,0 -26,-103.72 0,-207.45 -26,-311.18 0,-414.9 -26,-518.63 0,-622.36 -26,-726.09 -8,-798 l -11.54,0 -18.05,71.9 26,103.73 -26,103.72 26,103.73 -26,103.72 26,103.73 -26,103.72 26,103.73 -26,103.73 25.97,104.64 -18.83,74.65 11.49,0 L 0,207.45 -26,103.73 0,0 Z"
           style="fill:#ffb400;fill-opacity:1;fill-rule:nonzero;stroke:none"
           id="path250" /></g><g
         transform="translate(393.2798,798)"
         id="g256"><path
           d="M 0,0 -26,-103.72 0,-207.45 -26,-311.18 0,-414.9 -26,-518.63 0,-622.36 -26,-726.09 -8,-798 l -11.54,0 -18.05,71.9 26,103.73 -26,103.72 26,103.73 -26,103.72 26,103.73 -26,103.72 26,103.73 -26,103.73 25.97,104.64 -18.83,74.65 11.49,0 L 0,207.45 -26,103.73 0,0 Z"
           style="fill:#ffb400;fill-opacity:1;fill-rule:nonzero;stroke:none"
           id="path254" /></g><g
         transform="translate(548.6602,798)"
         id="g260"><path
           d="M 0,0 -26,-103.72 0,-207.45 -26,-311.18 0,-414.9 -26,-518.63 0,-622.36 -26,-726.09 -8,-798 l -11.55,0 -18.05,71.9 26,103.73 -26,103.72 26,103.73 -26,103.72 26,103.73 -26,103.72 26,103.73 -26,103.73 25.97,104.64 -18.83,74.65 11.5,0 L 0,207.45 -26,103.73 0,0 Z"
           style="fill:#ffb400;fill-opacity:1;fill-rule:nonzero;stroke:none"
           id="path258" /></g><g
         transform="translate(704.0298,798)"
         id="g264"><path
           d="M 0,0 -26,-103.72 0,-207.45 -26,-311.18 0,-414.9 -26,-518.63 0,-622.36 -26,-726.09 -8,-798 l -11.54,0 -18.05,71.9 26,103.73 -26,103.72 26,103.73 -26,103.72 26,103.73 -26,103.72 26,103.73 -26,103.73 25.97,104.64 -18.83,74.65 11.49,0 L 0,207.45 -26,103.73 0,0 Z"
           style="fill:#ffb400;fill-opacity:1;fill-rule:nonzero;stroke:none"
           id="path262" /></g><g
         transform="translate(859.4102,798)"
         id="g268"><path
           d="M 0,0 -26,-103.72 0,-207.45 -26,-311.18 0,-414.9 -26,-518.63 0,-622.36 -26,-726.09 -8,-798 l -11.55,0 -18.05,71.9 26,103.73 -26,103.72 26,103.73 -26,103.72 26,103.73 -26,103.72 26,103.73 -26,103.73 25.97,104.64 -18.83,74.65 11.5,0 L 0,207.45 -26,103.73 0,0 Z"
           style="fill:#ffb400;fill-opacity:1;fill-rule:nonzero;stroke:none"
           id="path266" /></g><g
         transform="translate(1014.7798,798)"
         id="g272"><path
           d="M 0,0 -26,-103.72 0,-207.45 -26,-311.18 0,-414.9 -26,-518.63 0,-622.36 -26,-726.09 -8,-798 l -11.54,0 -18.05,71.9 26,103.73 -26,103.72 26,103.73 -26,103.72 26,103.73 -26,103.72 26,103.73 -26,103.73 25.97,104.64 -18.83,74.65 11.49,0 L 0,207.45 -26,103.73 0,0 Z"
           style="fill:#ffb400;fill-opacity:1;fill-rule:nonzero;stroke:none"
           id="path270" /></g></pattern><pattern
       patternTransform="translate(-0.9999,1080)"
       patternUnits="userSpaceOnUse"
       x="0"
       y="0"
       width="1081"
       height="1081"
       id="pattern296"><path
         d="M 1081,0 0,0 l 0,1081 1081,0 0,-1081 z"
         style="fill:#7fb800;fill-opacity:1;fill-rule:nonzero;stroke:none"
         id="path280" /><path
         d="m 1081,1011.471 -1081,0 0,11.59 1081,0 0,-11.59 z"
         style="fill:#ffb400;fill-opacity:1;fill-rule:nonzero;stroke:none"
         id="path282" /><path
         d="m 1081,856.09 -1081,0 0,11.59 1081,0 0,-11.59 z"
         style="fill:#ffb400;fill-opacity:1;fill-rule:nonzero;stroke:none"
         id="path284" /><path
         d="m 1081,700.721 -1081,0 0,11.59 1081,0 0,-11.59 z"
         style="fill:#ffb400;fill-opacity:1;fill-rule:nonzero;stroke:none"
         id="path286" /><path
         d="m 1081,545.34 -1081,0 0,11.601 1081,0 0,-11.601 z"
         style="fill:#ffb400;fill-opacity:1;fill-rule:nonzero;stroke:none"
         id="path288" /><path
         d="m 1081,389.971 -1081,0 0,11.59 1081,0 0,-11.59 z"
         style="fill:#ffb400;fill-opacity:1;fill-rule:nonzero;stroke:none"
         id="path290" /><path
         d="m 1081,234.59 -1081,0 0,11.601 1081,0 0,-11.601 z"
         style="fill:#ffb400;fill-opacity:1;fill-rule:nonzero;stroke:none"
         id="path292" /><path
         d="m 1081,79.221 -1081,0 0,11.59 1081,0 0,-11.59 z"
         style="fill:#ffb400;fill-opacity:1;fill-rule:nonzero;stroke:none"
         id="path294" /></pattern><pattern
       patternTransform="translate(-0.9999,1080)"
       patternUnits="userSpaceOnUse"
       x="0"
       y="0"
       width="1081"
       height="1081"
       id="pattern332"><path
         d="M 1081,0 0,0 l 0,1081 1081,0 0,-1081 z"
         style="fill:#00a6ed;fill-opacity:1;fill-rule:nonzero;stroke:none"
         id="path302" /><g
         transform="translate(79.5298,1080.6997)"
         id="g306"><path
           d="m 0,0 c 0,-28.21 -20,-28.21 -20,-56.43 0,-28.22 20,-28.22 20,-56.43 0,-28.22 -20,-28.22 -20,-56.44 0,-28.21 20,-28.21 20,-56.43 0,-28.22 -20,-28.22 -20,-56.43 0,-28.22 20,-28.22 20,-56.43 0,-28.22 -20,-28.22 -20,-56.43 0,-28.22 20,-28.22 20,-56.43 0,-28.22 -20,-28.22 -20,-56.43 0,-28.22 20,-28.22 20,-56.44 0,-28.21 -20,-28.21 -20,-56.43 0,-28.22 20,-28.22 20,-56.44 0,-28.22 -20,-28.22 -20,-56.43 0,-28.22 20,-28.22 20,-56.44 0,-28.22 -20,-28.22 -20,-56.43 0,-28.22 20,-28.22 20,-56.44 0,-28.21 -20,-28.21 -20,-56.43 0,-28.22 20,-28.22 20,-56.44 0,-28.22 -20,-28.22 -20,-56.44 0,-3.14 0.25,-5.94 0.7,-8.46 l -11.61,0 c -0.44,2.52 -0.68,5.31 -0.68,8.45 0,28.21 20,28.21 20,56.43 0,28.22 -20,28.22 -20,56.43 0,28.22 20,28.22 20,56.44 0,28.21 -20,28.21 -20,56.43 0,28.22 20,28.22 20,56.43 0,28.22 -20,28.22 -20,56.43 0,28.22 20,28.22 20,56.43 0,28.22 -20,28.22 -20,56.43 0,28.22 20,28.22 20,56.43 0,28.22 -20,28.22 -20,56.44 0,28.21 20,28.21 20,56.43 0,28.22 -20,28.22 -20,56.44 0,28.21 20,28.21 20,56.43 0,28.22 -20,28.22 -20,56.44 0,28.21 20,28.21 20,56.43 0,28.22 -20,28.22 -20,56.44 0,28.21 20,28.21 20,56.43 0,28.22 -20,28.22 -20,56.44 0,27.92 22.82,29.6 20.03,56.75 L 0,0.3 0,0 Z"
           style="fill:#0d2c54;fill-opacity:1;fill-rule:nonzero;stroke:none"
           id="path304" /></g><g
         transform="translate(234.9102,1080.6997)"
         id="g310"><path
           d="m 0,0 c 0,-28.21 -20,-28.21 -20,-56.43 0,-28.22 20,-28.22 20,-56.43 0,-28.22 -20,-28.22 -20,-56.44 0,-28.21 20,-28.21 20,-56.43 0,-28.22 -20,-28.22 -20,-56.43 0,-28.22 20,-28.22 20,-56.43 0,-28.22 -20,-28.22 -20,-56.43 0,-28.22 20,-28.22 20,-56.43 0,-28.22 -20,-28.22 -20,-56.43 0,-28.22 20,-28.22 20,-56.44 0,-28.21 -20,-28.21 -20,-56.43 0,-28.22 20,-28.22 20,-56.44 0,-28.22 -20,-28.22 -20,-56.43 0,-28.22 20,-28.22 20,-56.44 0,-28.22 -20,-28.22 -20,-56.43 0,-28.22 20,-28.22 20,-56.44 0,-28.21 -20,-28.21 -20,-56.43 0,-28.22 20,-28.22 20,-56.44 0,-28.22 -20,-28.22 -20,-56.44 0,-3.14 0.25,-5.94 0.7,-8.46 l -11.61,0 c -0.44,2.52 -0.68,5.31 -0.68,8.45 0,28.21 20,28.21 20,56.43 0,28.22 -20,28.22 -20,56.43 0,28.22 20,28.22 20,56.44 0,28.21 -20,28.21 -20,56.43 0,28.22 20,28.22 20,56.43 0,28.22 -20,28.22 -20,56.43 0,28.22 20,28.22 20,56.43 0,28.22 -20,28.22 -20,56.43 0,28.22 20,28.22 20,56.43 0,28.22 -20,28.22 -20,56.44 0,28.21 20,28.21 20,56.43 0,28.22 -20,28.22 -20,56.44 0,28.21 20,28.21 20,56.43 0,28.22 -20,28.22 -20,56.44 0,28.21 20,28.21 20,56.43 0,28.22 -20,28.22 -20,56.44 0,28.21 20,28.21 20,56.43 0,28.22 -20,28.22 -20,56.44 0,27.92 22.82,29.6 20.03,56.75 L 0,0.3 0,0 Z"
           style="fill:#0d2c54;fill-opacity:1;fill-rule:nonzero;stroke:none"
           id="path308" /></g><g
         transform="translate(390.2798,1080.6997)"
         id="g314"><path
           d="m 0,0 c 0,-28.21 -20,-28.21 -20,-56.43 0,-28.22 20,-28.22 20,-56.43 0,-28.22 -20,-28.22 -20,-56.44 0,-28.21 20,-28.21 20,-56.43 0,-28.22 -20,-28.22 -20,-56.43 0,-28.22 20,-28.22 20,-56.43 0,-28.22 -20,-28.22 -20,-56.43 0,-28.22 20,-28.22 20,-56.43 0,-28.22 -20,-28.22 -20,-56.43 0,-28.22 20,-28.22 20,-56.44 0,-28.21 -20,-28.21 -20,-56.43 0,-28.22 20,-28.22 20,-56.44 0,-28.22 -20,-28.22 -20,-56.43 0,-28.22 20,-28.22 20,-56.44 0,-28.22 -20,-28.22 -20,-56.43 0,-28.22 20,-28.22 20,-56.44 0,-28.21 -20,-28.21 -20,-56.43 0,-28.22 20,-28.22 20,-56.44 0,-28.22 -20,-28.22 -20,-56.44 0,-3.14 0.25,-5.94 0.7,-8.46 l -11.61,0 c -0.44,2.52 -0.68,5.31 -0.68,8.45 0,28.21 20,28.21 20,56.43 0,28.22 -20,28.22 -20,56.43 0,28.22 20,28.22 20,56.44 0,28.21 -20,28.21 -20,56.43 0,28.22 20,28.22 20,56.43 0,28.22 -20,28.22 -20,56.43 0,28.22 20,28.22 20,56.43 0,28.22 -20,28.22 -20,56.43 0,28.22 20,28.22 20,56.43 0,28.22 -20,28.22 -20,56.44 0,28.21 20,28.21 20,56.43 0,28.22 -20,28.22 -20,56.44 0,28.21 20,28.21 20,56.43 0,28.22 -20,28.22 -20,56.44 0,28.21 20,28.21 20,56.43 0,28.22 -20,28.22 -20,56.44 0,28.21 20,28.21 20,56.43 0,28.22 -20,28.22 -20,56.44 0,27.92 22.82,29.6 20.03,56.75 L 0,0.3 0,0 Z"
           style="fill:#0d2c54;fill-opacity:1;fill-rule:nonzero;stroke:none"
           id="path312" /></g><g
         transform="translate(545.6602,1080.6997)"
         id="g318"><path
           d="m 0,0 c 0,-28.21 -20,-28.21 -20,-56.43 0,-28.22 20,-28.22 20,-56.43 0,-28.22 -20,-28.22 -20,-56.44 0,-28.21 20,-28.21 20,-56.43 0,-28.22 -20,-28.22 -20,-56.43 0,-28.22 20,-28.22 20,-56.43 0,-28.22 -20,-28.22 -20,-56.43 0,-28.22 20,-28.22 20,-56.43 0,-28.22 -20,-28.22 -20,-56.43 0,-28.22 20,-28.22 20,-56.44 0,-28.21 -20,-28.21 -20,-56.43 0,-28.22 20,-28.22 20,-56.44 0,-28.22 -20,-28.22 -20,-56.43 0,-28.22 20,-28.22 20,-56.44 0,-28.22 -20,-28.22 -20,-56.43 0,-28.22 20,-28.22 20,-56.44 0,-28.21 -20,-28.21 -20,-56.43 0,-28.22 20,-28.22 20,-56.44 0,-28.22 -20,-28.22 -20,-56.44 0,-3.14 0.25,-5.94 0.7,-8.46 l -11.62,0 c -0.44,2.52 -0.68,5.31 -0.68,8.45 0,28.21 20,28.21 20,56.43 0,28.22 -20,28.22 -20,56.43 0,28.22 20,28.22 20,56.44 0,28.21 -20,28.21 -20,56.43 0,28.22 20,28.22 20,56.43 0,28.22 -20,28.22 -20,56.43 0,28.22 20,28.22 20,56.43 0,28.22 -20,28.22 -20,56.43 0,28.22 20,28.22 20,56.43 0,28.22 -20,28.22 -20,56.44 0,28.21 20,28.21 20,56.43 0,28.22 -20,28.22 -20,56.44 0,28.21 20,28.21 20,56.43 0,28.22 -20,28.22 -20,56.44 0,28.21 20,28.21 20,56.43 0,28.22 -20,28.22 -20,56.44 0,28.21 20,28.21 20,56.43 0,28.22 -20,28.22 -20,56.44 0,27.92 22.82,29.6 20.03,56.75 L 0,0.3 0,0 Z"
           style="fill:#0d2c54;fill-opacity:1;fill-rule:nonzero;stroke:none"
           id="path316" /></g><g
         transform="translate(701.0298,1080.6997)"
         id="g322"><path
           d="m 0,0 c 0,-28.21 -20,-28.21 -20,-56.43 0,-28.22 20,-28.22 20,-56.43 0,-28.22 -20,-28.22 -20,-56.44 0,-28.21 20,-28.21 20,-56.43 0,-28.22 -20,-28.22 -20,-56.43 0,-28.22 20,-28.22 20,-56.43 0,-28.22 -20,-28.22 -20,-56.43 0,-28.22 20,-28.22 20,-56.43 0,-28.22 -20,-28.22 -20,-56.43 0,-28.22 20,-28.22 20,-56.44 0,-28.21 -20,-28.21 -20,-56.43 0,-28.22 20,-28.22 20,-56.44 0,-28.22 -20,-28.22 -20,-56.43 0,-28.22 20,-28.22 20,-56.44 0,-28.22 -20,-28.22 -20,-56.43 0,-28.22 20,-28.22 20,-56.44 0,-28.21 -20,-28.21 -20,-56.43 0,-28.22 20,-28.22 20,-56.44 0,-28.22 -20,-28.22 -20,-56.44 0,-3.14 0.25,-5.94 0.7,-8.46 l -11.61,0 c -0.44,2.52 -0.68,5.31 -0.68,8.45 0,28.21 20,28.21 20,56.43 0,28.22 -20,28.22 -20,56.43 0,28.22 20,28.22 20,56.44 0,28.21 -20,28.21 -20,56.43 0,28.22 20,28.22 20,56.43 0,28.22 -20,28.22 -20,56.43 0,28.22 20,28.22 20,56.43 0,28.22 -20,28.22 -20,56.43 0,28.22 20,28.22 20,56.43 0,28.22 -20,28.22 -20,56.44 0,28.21 20,28.21 20,56.43 0,28.22 -20,28.22 -20,56.44 0,28.21 20,28.21 20,56.43 0,28.22 -20,28.22 -20,56.44 0,28.21 20,28.21 20,56.43 0,28.22 -20,28.22 -20,56.44 0,28.21 20,28.21 20,56.43 0,28.22 -20,28.22 -20,56.44 0,27.92 22.82,29.6 20.03,56.75 L 0,0.3 0,0 Z"
           style="fill:#0d2c54;fill-opacity:1;fill-rule:nonzero;stroke:none"
           id="path320" /></g><g
         transform="translate(856.4102,1080.6997)"
         id="g326"><path
           d="m 0,0 c 0,-28.21 -20,-28.21 -20,-56.43 0,-28.22 20,-28.22 20,-56.43 0,-28.22 -20,-28.22 -20,-56.44 0,-28.21 20,-28.21 20,-56.43 0,-28.22 -20,-28.22 -20,-56.43 0,-28.22 20,-28.22 20,-56.43 0,-28.22 -20,-28.22 -20,-56.43 0,-28.22 20,-28.22 20,-56.43 0,-28.22 -20,-28.22 -20,-56.43 0,-28.22 20,-28.22 20,-56.44 0,-28.21 -20,-28.21 -20,-56.43 0,-28.22 20,-28.22 20,-56.44 0,-28.22 -20,-28.22 -20,-56.43 0,-28.22 20,-28.22 20,-56.44 0,-28.22 -20,-28.22 -20,-56.43 0,-28.22 20,-28.22 20,-56.44 0,-28.21 -20,-28.21 -20,-56.43 0,-28.22 20,-28.22 20,-56.44 0,-28.22 -20,-28.22 -20,-56.44 0,-3.14 0.25,-5.94 0.7,-8.46 l -11.62,0 c -0.44,2.52 -0.68,5.31 -0.68,8.45 0,28.21 20,28.21 20,56.43 0,28.22 -20,28.22 -20,56.43 0,28.22 20,28.22 20,56.44 0,28.21 -20,28.21 -20,56.43 0,28.22 20,28.22 20,56.43 0,28.22 -20,28.22 -20,56.43 0,28.22 20,28.22 20,56.43 0,28.22 -20,28.22 -20,56.43 0,28.22 20,28.22 20,56.43 0,28.22 -20,28.22 -20,56.44 0,28.21 20,28.21 20,56.43 0,28.22 -20,28.22 -20,56.44 0,28.21 20,28.21 20,56.43 0,28.22 -20,28.22 -20,56.44 0,28.21 20,28.21 20,56.43 0,28.22 -20,28.22 -20,56.44 0,28.21 20,28.21 20,56.43 0,28.22 -20,28.22 -20,56.44 0,27.92 22.82,29.6 20.03,56.75 L 0,0.3 0,0 Z"
           style="fill:#0d2c54;fill-opacity:1;fill-rule:nonzero;stroke:none"
           id="path324" /></g><g
         transform="translate(1011.7798,1080.6997)"
         id="g330"><path
           d="m 0,0 c 0,-28.21 -20,-28.21 -20,-56.43 0,-28.22 20,-28.22 20,-56.43 0,-28.22 -20,-28.22 -20,-56.44 0,-28.21 20,-28.21 20,-56.43 0,-28.22 -20,-28.22 -20,-56.43 0,-28.22 20,-28.22 20,-56.43 0,-28.22 -20,-28.22 -20,-56.43 0,-28.22 20,-28.22 20,-56.43 0,-28.22 -20,-28.22 -20,-56.43 0,-28.22 20,-28.22 20,-56.44 0,-28.21 -20,-28.21 -20,-56.43 0,-28.22 20,-28.22 20,-56.44 0,-28.22 -20,-28.22 -20,-56.43 0,-28.22 20,-28.22 20,-56.44 0,-28.22 -20,-28.22 -20,-56.43 0,-28.22 20,-28.22 20,-56.44 0,-28.21 -20,-28.21 -20,-56.43 0,-28.22 20,-28.22 20,-56.44 0,-28.22 -20,-28.22 -20,-56.44 0,-3.14 0.25,-5.94 0.7,-8.46 l -11.61,0 c -0.44,2.52 -0.68,5.31 -0.68,8.45 0,28.21 20,28.21 20,56.43 0,28.22 -20,28.22 -20,56.43 0,28.22 20,28.22 20,56.44 0,28.21 -20,28.21 -20,56.43 0,28.22 20,28.22 20,56.43 0,28.22 -20,28.22 -20,56.43 0,28.22 20,28.22 20,56.43 0,28.22 -20,28.22 -20,56.43 0,28.22 20,28.22 20,56.43 0,28.22 -20,28.22 -20,56.44 0,28.21 20,28.21 20,56.43 0,28.22 -20,28.22 -20,56.44 0,28.21 20,28.21 20,56.43 0,28.22 -20,28.22 -20,56.44 0,28.21 20,28.21 20,56.43 0,28.22 -20,28.22 -20,56.44 0,28.21 20,28.21 20,56.43 0,28.22 -20,28.22 -20,56.44 0,27.92 22.82,29.6 20.03,56.75 L 0,0.3 0,0 Z"
           style="fill:#0d2c54;fill-opacity:1;fill-rule:nonzero;stroke:none"
           id="path328" /></g></pattern><pattern
       patternTransform="translate(-0.9999,1080)"
       patternUnits="userSpaceOnUse"
       x="0"
       y="0"
       width="1081"
       height="1081"
       id="pattern354"><path
         d="M 1081,0 0,0 l 0,1081 1081,0 0,-1081 z"
         style="fill:#0d2c54;fill-opacity:1;fill-rule:nonzero;stroke:none"
         id="path338" /><path
         d="m 1081,1011.471 -1081,0 0,11.59 1081,0 0,-11.59 z"
         style="fill:#00a6ed;fill-opacity:1;fill-rule:nonzero;stroke:none"
         id="path340" /><path
         d="m 1081,856.09 -1081,0 0,11.59 1081,0 0,-11.59 z"
         style="fill:#00a6ed;fill-opacity:1;fill-rule:nonzero;stroke:none"
         id="path342" /><path
         d="m 1081,700.721 -1081,0 0,11.59 1081,0 0,-11.59 z"
         style="fill:#00a6ed;fill-opacity:1;fill-rule:nonzero;stroke:none"
         id="path344" /><path
         d="m 1081,545.34 -1081,0 0,11.601 1081,0 0,-11.601 z"
         style="fill:#00a6ed;fill-opacity:1;fill-rule:nonzero;stroke:none"
         id="path346" /><path
         d="m 1081,389.971 -1081,0 0,11.59 1081,0 0,-11.59 z"
         style="fill:#00a6ed;fill-opacity:1;fill-rule:nonzero;stroke:none"
         id="path348" /><path
         d="m 1081,234.59 -1081,0 0,11.601 1081,0 0,-11.601 z"
         style="fill:#00a6ed;fill-opacity:1;fill-rule:nonzero;stroke:none"
         id="path350" /><path
         d="m 1081,79.221 -1081,0 0,11.59 1081,0 0,-11.59 z"
         style="fill:#00a6ed;fill-opacity:1;fill-rule:nonzero;stroke:none"
         id="path352" /></pattern></defs><sodipodi:namedview
     id="namedview4"
     pagecolor="#ffffff"
     bordercolor="#666666"
     borderopacity="1.0"
     inkscape:pageshadow="2"
     inkscape:pageopacity="0.0"
     inkscape:pagecheckerboard="0" /><g
     id="g8"
     inkscape:groupmode="layer"
     inkscape:label="auth-bg"
     transform="matrix(1.3333333,0,0,-1.3333333,0,1440)"><g
       id="g10"><g
         id="g12"
         clip-path="url(#clipPath16)"><g
           id="g18"
           transform="translate(0.9999)"><path
             d="M 0,0 H 738.316 L 0,1079 Z"
             style="fill:url(#pattern36);fill-opacity:1;fill-rule:nonzero;stroke:none"
             id="path38" /></g><g
           id="g40"
           transform="translate(1133.0127,1079)"><path
             d="M 0,0 H -1132.013 V -701 Z"
             style="fill:url(#pattern72);fill-opacity:1;fill-rule:nonzero;stroke:none"
             id="path74" /></g><g
           id="g76"
           transform="translate(739.3156)"><path
             d="M 0,0 H 584.017 L -401.407,586.631 Z"
             style="fill:url(#pattern108);fill-opacity:1;fill-rule:nonzero;stroke:none"
             id="path110" /></g><g
           id="g112"
           transform="translate(1325.5642)"><path
             d="M 0,0 H 594.435 V 1077.188 Z"
             style="fill:url(#pattern238);fill-opacity:1;fill-rule:nonzero;stroke:none"
             id="path240" /></g><g
           id="g242"
           transform="translate(704.3049,368.5113)"><path
             d="m 0,0 619.028,-368.511 h 2.231 l 594.436,1077.188 v 1.228 z"
             style="fill:url(#pattern274);fill-opacity:1;fill-rule:nonzero;stroke:none"
             id="path276" /></g><g
           id="g278"
           transform="translate(1133.0127,1079.0001)"><path
             d="M 0,0 59.542,-425.375 786.987,-0.584 V 0 Z"
             style="fill:url(#pattern296);fill-opacity:1;fill-rule:nonzero;stroke:none"
             id="path298" /></g><g
           id="g300"
           transform="translate(337.9082,586.6309)"><path
             d="M 0,0 854.646,66.994 795.104,492.369 Z"
             style="fill:url(#pattern332);fill-opacity:1;fill-rule:nonzero;stroke:none"
             id="path334" /></g><g
           id="g336"
           transform="translate(704.3047,368.5117)"><path
             d="M 0,0 488.25,285.113 -366.396,218.119 Z"
             style="fill:url(#pattern354);fill-opacity:1;fill-rule:nonzero;stroke:none"
             id="path356" /></g></g></g></g></svg>
